<svg xmlns="http://www.w3.org/2000/svg" version="1.1" viewBox="-5.0 -10.0 110.0 135.0">
 <path d="m89.582 6.25h-79.164c-4.0195 0-7.293 3.2695-7.293 7.293v54.168c0 4.0195 3.2695 7.293 7.293 7.293h22.051c0.28516 0.63672 0.47266 1.4492 0.65625 2.2383 0.12891 0.56641 0.26562 1.1406 0.4375 1.6875l-5.043 8.6836c-0.37891 0.65234-0.375 1.4609 0.007813 2.1133 0.38672 0.65625 1.0898 1.0352 1.8203 1.0156l5.8672-0.074219 2.832 5.125c0.35547 0.65625 1.043 1.0703 1.793 1.082h0.03125c0.74219 0 1.4297-0.39453 1.8047-1.0352l5.6641-9.75c0.51953 0.22656 1.0703 0.375 1.6641 0.375s1.1445-0.14844 1.6641-0.375l5.6641 9.75c0.37109 0.64062 1.0625 1.0352 1.8008 1.0352h0.03125c0.75-0.011719 1.4375-0.42578 1.793-1.0742l2.8359-5.1328 5.8516 0.074219c0.74219 0.011718 1.4531-0.37109 1.8359-1.0156 0.38281-0.65234 0.38672-1.4609 0.007812-2.1094l-5.043-8.6836c0.17188-0.55078 0.30469-1.1211 0.4375-1.6875 0.18359-0.79297 0.37109-1.6055 0.65234-2.2383h22.051c4.0195 0 7.293-3.2695 7.293-7.293l-0.003906-54.172c0-4.0195-3.2695-7.293-7.293-7.293zm-47.727 73.953c-0.61719 0-1.2461 0.054687-1.8672 0.10938-1.3945 0.12109-2.7148 0.23438-3.4609-0.30859-0.76172-0.55469-1.0586-1.8516-1.375-3.2266-0.28906-1.2617-0.58984-2.5664-1.3203-3.5703-0.72266-0.99219-1.8594-1.6719-2.9609-2.3281-1.2227-0.73047-2.375-1.418-2.6719-2.332-0.27734-0.85156 0.23438-2.0547 0.77344-3.332 0.51562-1.2148 1.0469-2.4688 1.0469-3.7539 0-1.2852-0.53125-2.5391-1.0469-3.7539-0.53906-1.2734-1.0508-2.4805-0.77344-3.332 0.29688-0.91406 1.4492-1.6016 2.6719-2.332 1.1016-0.65625 2.2383-1.3398 2.9609-2.3281 0.73047-1.0039 1.0312-2.3086 1.3203-3.5703 0.31641-1.375 0.61719-2.6758 1.375-3.2266 0.74609-0.54297 2.0664-0.42969 3.4609-0.30859 1.2969 0.11328 2.6367 0.22656 3.832-0.16016 1.1445-0.37109 2.1289-1.2344 3.082-2.0703 1.082-0.94531 2.1016-1.8359 3.0938-1.8359 0.99219 0 2.0117 0.89453 3.0938 1.8359 0.95312 0.83594 1.9414 1.6953 3.0859 2.0703 1.1914 0.38672 2.5352 0.27344 3.832 0.16016 1.3984-0.11719 2.7188-0.23438 3.4609 0.30859 0.76172 0.55469 1.0625 1.8516 1.3789 3.2266 0.28906 1.2617 0.58984 2.5664 1.3203 3.5703 0.71875 0.99219 1.8594 1.6719 2.9609 2.3281 1.2227 0.73047 2.375 1.418 2.6719 2.332 0.27734 0.85156-0.23438 2.0547-0.77344 3.332-0.51562 1.2148-1.0469 2.4688-1.0469 3.7539 0 1.2852 0.53125 2.5391 1.043 3.7539 0.53906 1.2734 1.0508 2.4805 0.77344 3.332-0.29688 0.91406-1.4492 1.6016-2.6719 2.332-1.1016 0.65625-2.2383 1.3398-2.9609 2.3281-0.73047 1.0039-1.0312 2.3086-1.3203 3.5703-0.31641 1.375-0.61719 2.6758-1.3789 3.2266-0.74609 0.54297-2.0664 0.42969-3.4609 0.30859-1.2969-0.11328-2.6367-0.22656-3.832 0.16016-1.1445 0.37109-2.1289 1.2344-3.0859 2.0703-1.082 0.94531-2.1016 1.8359-3.0938 1.8359-0.99219 0-2.0117-0.89453-3.0938-1.8359-0.95313-0.83594-1.9414-1.6953-3.082-2.0703-0.625-0.20312-1.2891-0.26562-1.9648-0.26562zm31.09-15.805c-0.43359-1.0234-0.87891-2.0781-0.87891-2.9414 0-0.85938 0.44922-1.918 0.88281-2.9414 0.66406-1.5703 1.3516-3.1953 0.83594-4.7852-0.53906-1.6602-2.1562-2.625-3.582-3.4805-0.96484-0.57422-1.875-1.1211-2.3438-1.7656-0.48047-0.66016-0.73047-1.7539-0.97656-2.8125-0.38672-1.6875-0.79297-3.4336-2.1836-4.4453-1.375-1-3.1484-0.84766-4.8672-0.69922-1.0898 0.09375-2.2148 0.19141-3.0078-0.066406-0.73828-0.23828-1.5234-0.92578-2.3555-1.6562-1.2617-1.1016-2.6914-2.3516-4.4648-2.3516-1.7734 0-3.2031 1.25-4.4648 2.3516-0.83203 0.72656-1.6172 1.4141-2.3555 1.6562-0.79297 0.25781-1.918 0.16016-3.0078 0.066406-1.7148-0.14844-3.4883-0.30078-4.8672 0.69922-1.3906 1.0117-1.793 2.7578-2.1797 4.4453-0.24219 1.0586-0.49609 2.1523-0.97656 2.8086-0.46875 0.64453-1.3789 1.1914-2.3438 1.7656-1.4258 0.85156-3.0469 1.8203-3.5859 3.4766-0.51562 1.5898 0.17188 3.2148 0.83594 4.7852 0.43359 1.0234 0.87891 2.0781 0.87891 2.9414 0 0.85938-0.44922 1.918-0.87891 2.9414-0.60547 1.4258-1.2188 2.8984-0.9375 4.3516h-8.4648c-0.48047-4.3398-3.9375-7.793-8.2773-8.2773l-0.003906-39.688c4.3398-0.48047 7.793-3.9375 8.2773-8.2773h64.699c0.48047 4.3398 3.9375 7.793 8.2734 8.2773v39.699c-4.3398 0.48047-7.793 3.9375-8.2734 8.2773h-8.4648c0.28125-1.4531-0.33203-2.9219-0.9375-4.3516zm-32.074 30.391-3.1367-5.6758c-0.1875-0.33594-0.56641-0.53516-0.92578-0.53906l-6.4922 0.085937 4.3789-7.5391c0.17969 0.20312 0.375 0.39844 0.60547 0.56641 1.375 1 3.1523 0.84766 4.8672 0.69922 1.0898-0.09375 2.2188-0.19141 3.0078 0.066406 0.73828 0.23828 1.5234 0.92578 2.3555 1.6562 0.33203 0.28906 0.67578 0.58984 1.0352 0.875l-5.6992 9.8086zm28.809-6.1328-6.4883-0.082031c-0.37891-0.011719-0.73828 0.20312-0.92578 0.53906l-3.1367 5.6797-5.6992-9.8086c0.35937-0.28516 0.70312-0.58594 1.0352-0.875 0.83203-0.72656 1.6172-1.4141 2.3555-1.6562 0.79297-0.25781 1.9219-0.16016 3.0117-0.066406 1.7148 0.14844 3.4883 0.30078 4.8672-0.69922 0.23047-0.16797 0.42578-0.36328 0.60547-0.56641l4.375 7.5391zm25.113-20.949c0 2.8711-2.3359 5.207-5.207 5.207h-19.805c0.14062-0.085937 0.27734-0.16797 0.41797-0.25391 0.875-0.52344 1.8164-1.0898 2.543-1.8281h10.59c0.57422 0 1.043-0.46484 1.043-1.043 0-4.0195 3.2695-7.293 7.293-7.293 0.57422 0 1.043-0.46484 1.043-1.043l-0.003907-41.66c0-0.57422-0.46484-1.043-1.043-1.043-4.0195 0-7.293-3.2695-7.293-7.293 0-0.57422-0.46484-1.043-1.043-1.043l-66.66 0.003907c-0.57422 0-1.043 0.46484-1.043 1.043 0 4.0195-3.2695 7.293-7.293 7.293-0.57422 0-1.043 0.46484-1.043 1.043v41.668c0 0.57422 0.46484 1.043 1.043 1.043 4.0195 0 7.293 3.2695 7.293 7.293 0 0.57422 0.46484 1.043 1.043 1.043h10.59c0.72656 0.74219 1.668 1.3086 2.543 1.8281 0.14062 0.085937 0.27734 0.16797 0.41797 0.25391l-19.801-0.007812c-2.8711 0-5.207-2.3359-5.207-5.207l-0.003907-54.168c0-2.8711 2.3359-5.207 5.207-5.207h79.168c2.8711 0 5.207 2.3359 5.207 5.207v54.168zm-62.5-50c0-0.57422 0.46484-1.043 1.043-1.043h33.332c0.57422 0 1.043 0.46484 1.043 1.043 0 0.57422-0.46484 1.043-1.043 1.043h-33.332c-0.57422 0-1.043-0.46484-1.043-1.043zm-10.418 6.25c0-0.57422 0.46484-1.043 1.043-1.043h54.168c0.57422 0 1.043 0.46484 1.043 1.043 0 0.57422-0.46484 1.043-1.043 1.043h-54.168c-0.57422 0-1.043-0.46484-1.043-1.043zm55.207 7.293h-54.164c-0.57422 0-1.043-0.46484-1.043-1.043 0-0.57422 0.46484-1.043 1.043-1.043h54.168c0.57422 0 1.043 0.46484 1.043 1.043 0 0.57422-0.46484 1.043-1.043 1.043zm-11.457 30.207c0-8.6172-7.0078-15.625-15.625-15.625s-15.625 7.0078-15.625 15.625c0 8.6172 7.0078 15.625 15.625 15.625s15.625-7.0078 15.625-15.625zm-29.168 0c0-7.4688 6.0742-13.543 13.543-13.543s13.543 6.0742 13.543 13.543-6.0742 13.543-13.543 13.543c-7.4648 0-13.543-6.0742-13.543-13.543zm14.281 4.1172c-0.60938 0.60938-1.4102 0.91406-2.2109 0.91406-0.80078 0-1.6016-0.30469-2.2109-0.91406l-4.418-4.418c-0.40625-0.40625-0.40625-1.0664 0-1.4727s1.0664-0.40625 1.4727 0l4.418 4.418c0.40625 0.40625 1.0664 0.40625 1.4727 0l7.3672-7.3672c0.40625-0.40625 1.0664-0.40625 1.4727 0s0.40625 1.0664 0 1.4727l-7.3672 7.3672z"/>
<text x="0.0" y="117.5" font-size="5.0" font-weight="bold" font-family="Arbeit Regular, Helvetica, Arial-Unicode, Arial, Sans-serif" fill="#000000">Created by Arkinasi</text><text x="0.0" y="122.5" font-size="5.0" font-weight="bold" font-family="Arbeit Regular, Helvetica, Arial-Unicode, Arial, Sans-serif" fill="#000000">from Noun Project</text></svg>