<?xml version="1.0" encoding="UTF-8"?>
<svg version="1.1" xmlns="http://www.w3.org/2000/svg" width="358" height="294">
<path d="M0 0 C16.7392345 14.17534586 35.57326014 33.4485664 42.5 54.8125 C42.625 57.625 42.625 57.625 42.5 59.8125 C35.10882997 61.32863744 28.10178982 62.0819899 21.3359375 58.2578125 C17.77809934 55.45696118 15.74422552 51.68349216 13.5 47.8125 C-2.0457012 21.45582893 -28.60948458 2.15919176 -58.08789062 -5.89453125 C-92.96974149 -14.48975678 -127.36176883 -9.77502912 -158.40625 8.51416016 C-163.79964889 11.85862089 -168.6711104 15.69564506 -173.5 19.8125 C-174.91152344 20.98039062 -174.91152344 20.98039062 -176.3515625 22.171875 C-187.48056616 31.76476266 -195.5435061 43.2684764 -202.8203125 55.92578125 C-204.5 58.8125 -204.5 58.8125 -205.5 59.8125 C-207.06172745 59.89935603 -208.62729344 59.91952219 -210.19140625 59.91015625 C-211.13564453 59.90693359 -212.07988281 59.90371094 -213.05273438 59.90039062 C-214.04595703 59.89201172 -215.03917969 59.88363281 -216.0625 59.875 C-217.05958984 59.87048828 -218.05667969 59.86597656 -219.08398438 59.86132812 C-221.55604849 59.84950007 -224.02799518 59.83301849 -226.5 59.8125 C-226.11177958 52.99534938 -224.12980401 48.49128855 -220.625 42.6875 C-220.13322266 41.85855225 -219.64144531 41.02960449 -219.13476562 40.17553711 C-214.51206841 32.54440622 -209.31616603 25.56635757 -203.5 18.8125 C-203.04625 18.28043945 -202.5925 17.74837891 -202.125 17.20019531 C-195.87902691 9.93836438 -189.15957425 3.59648936 -181.5 -2.1875 C-180.72398437 -2.77917969 -179.94796875 -3.37085937 -179.1484375 -3.98046875 C-125.70240275 -43.03718645 -51.76046319 -40.8038688 0 0 Z " fill="#000000" transform="translate(270.5,32.1875)"/>
<path d="M0 0 C0.90298828 -0.03738281 1.80597656 -0.07476562 2.73632812 -0.11328125 C7.2076938 -0.17241761 9.44116683 -0.19052567 13.08984375 2.57421875 C13.78207031 3.49847656 14.47429687 4.42273438 15.1875 5.375 C15.82171875 6.21417969 16.4559375 7.05335938 17.109375 7.91796875 C17.71265625 8.79066406 18.3159375 9.66335937 18.9375 10.5625 C38.7622887 38.23537578 68.12761416 53.55304529 101.1875 59.375 C133.43879783 63.97960633 166.74550992 55.20137561 193.03710938 36.16748047 C204.12830803 27.82817441 213.91221754 18.89132452 221.35546875 7.1171875 C224.66268465 2.16694109 224.66268465 2.16694109 227.1875 0.375 C230.22463798 -0.12733238 233.18105379 -0.04719228 236.25 0.0625 C237.06533203 0.07216797 237.88066406 0.08183594 238.72070312 0.09179688 C242.18211885 0.15721393 244.8750541 0.27085137 248.1875 1.375 C247.36692885 8.33465904 244.13449586 12.72708879 240.1875 18.375 C239.49785156 19.36628906 238.80820312 20.35757813 238.09765625 21.37890625 C227.48073194 35.87962851 214.48813095 48.87805665 199.1875 58.375 C198.58147949 58.7555957 197.97545898 59.13619141 197.35107422 59.52832031 C164.49007388 79.85909712 124.07100962 87.36300383 86.2109375 78.69140625 C58.60854597 71.66955616 35.63223362 59.11977127 15.1875 39.375 C14.39730469 38.63636719 13.60710937 37.89773437 12.79296875 37.13671875 C3.02081126 27.77529993 -5.54069817 16.39303367 -11.8125 4.375 C-11.8125 3.385 -11.8125 2.395 -11.8125 1.375 C-8.18818203 -0.43715899 -3.99145462 0.06188302 0 0 Z " fill="#000000" transform="translate(59.8125,212.625)"/>
<path d="M0 0 C0.845625 0.0825 1.69125 0.165 2.5625 0.25 C5.07408715 4.01738072 5.04033507 6.89639162 4.5625 11.25 C2.54283957 20.99189147 -3.37946514 28.58846653 -11.4375 34.25 C-23.21388654 41.69216887 -36.58207581 42.71151981 -50.1953125 42.6484375 C-51.57876847 42.65170409 -52.96222241 42.65595583 -54.34567261 42.66111755 C-57.99862941 42.66962506 -61.65117651 42.65689728 -65.30407715 42.63672256 C-67.58243955 42.6248965 -69.86077542 42.61787313 -72.13916016 42.61190796 C-92.73771055 42.54936943 -113.14316156 42.08207902 -133.62988281 39.77685547 C-139.55719146 39.11553105 -145.49346394 38.54737099 -151.4296875 37.97265625 C-165.11975793 36.64693011 -165.11975793 36.64693011 -171.91015625 35.96411133 C-177.75113277 35.3769571 -183.59350332 34.80626116 -189.4375 34.25 C-190.68466797 34.13003662 -191.93183594 34.01007324 -193.21679688 33.88647461 C-203.46425499 33.02352265 -213.73599752 33.06390358 -224.01269531 33.06469727 C-227.16745572 33.06251387 -230.32186371 33.0443031 -233.4765625 33.02539062 C-255.69191799 32.96278241 -276.69003062 35.1171092 -297.484375 43.296875 C-300.34462455 44.22002433 -302.45980929 44.44851271 -305.4375 44.25 C-304.4375 41.25 -304.4375 41.25 -301.1484375 39.34765625 C-299.7102834 38.65422437 -298.26434028 37.97680024 -296.8125 37.3125 C-296.04776367 36.95913574 -295.28302734 36.60577148 -294.49511719 36.24169922 C-247.81806671 15.33447136 -184.41714835 27.01303697 -135.17480469 32.12939453 C-133.91105011 32.26048111 -132.64729553 32.39156769 -131.34524536 32.52662659 C-128.98062942 32.77298771 -126.61624687 33.02160516 -124.25216675 33.27305603 C-67.58608369 40.77879908 -67.58608369 40.77879908 -14.4375 25.25 C-7.51888048 19.35738818 -5.55282386 11.65555973 -3.8671875 3.03515625 C-3.20671394 0.2911888 -2.87157311 0.29452032 0 0 Z " fill="#000000" transform="translate(313.4375,168.75)"/>
<path d="M0 0 C5.24862999 3.18324618 8.50257863 7.84469928 10.67578125 13.48046875 C11.93311543 16.29711693 12.53057416 17.00632106 15.4375 18.1953125 C17.38135151 18.67543604 19.33370525 19.12240474 21.29296875 19.53515625 C24.67593683 20.34827321 26.58797159 21.60391945 28.92578125 24.16796875 C31.76818891 29.94382205 31.5594882 35.87050596 30.92578125 42.16796875 C29.1441836 46.14230197 27.77229303 47.61004053 24.17578125 49.98046875 C20.33551607 51.38364257 16.99286705 51.8173579 12.92578125 52.16796875 C11.93578125 54.80796875 10.94578125 57.44796875 9.92578125 60.16796875 C8.93578125 59.67296875 8.93578125 59.67296875 7.92578125 59.16796875 C7.92578125 56.52796875 7.92578125 53.88796875 7.92578125 51.16796875 C4.95578125 51.66296875 4.95578125 51.66296875 1.92578125 52.16796875 C1.92578125 51.17796875 1.92578125 50.18796875 1.92578125 49.16796875 C2.83328125 48.59046875 3.74078125 48.01296875 4.67578125 47.41796875 C8.64425997 44.6705604 9.79663227 42.42626671 11.92578125 38.16796875 C12.58578125 38.16796875 13.24578125 38.16796875 13.92578125 38.16796875 C13.92578125 40.47796875 13.92578125 42.78796875 13.92578125 45.16796875 C17.54768705 44.88936061 20.24227562 44.5885876 23.36328125 42.66796875 C25.73282934 38.87669181 25.76308965 35.50956787 24.92578125 31.16796875 C23.39362652 27.96497694 23.39362652 27.96497694 19.92578125 26.16796875 C15.61821329 25.17712382 11.32197356 24.59922041 6.92578125 24.16796875 C6.755625 23.59949219 6.58546875 23.03101562 6.41015625 22.4453125 C3.48723701 12.64591416 3.48723701 12.64591416 -3.63671875 5.73046875 C-9.34360071 3.27555305 -15.48798531 3.04839337 -21.4140625 4.8984375 C-25.68462306 6.84683105 -28.60768907 9.08870812 -31.07421875 13.16796875 C-33.35605547 19.44301973 -33.59502834 24.70452801 -32.07421875 31.16796875 C-33.06421875 31.16796875 -34.05421875 31.16796875 -35.07421875 31.16796875 C-36.06421875 28.52796875 -37.05421875 25.88796875 -38.07421875 23.16796875 C-41.52252676 23.45532775 -42.83640524 23.93015524 -45.32421875 26.41796875 C-47.1333477 29.26088567 -47.99236114 30.8118066 -48.07421875 34.16796875 C-47.36004552 37.43179828 -47.36004552 37.43179828 -45.07421875 40.16796875 C-42.83093227 41.15179193 -40.5869938 41.80727983 -38.234375 42.484375 C-35.11686506 43.47092878 -33.80048661 44.36278347 -32.07421875 47.16796875 C-31.46613317 50.49671308 -31.20318064 53.78916725 -31.07421875 57.16796875 C-30.44257813 57.01199219 -29.8109375 56.85601562 -29.16015625 56.6953125 C-18.01991019 54.27142611 -7.15241354 54.43566219 2.92578125 60.16796875 C2.92578125 61.15796875 2.92578125 62.14796875 2.92578125 63.16796875 C2.17296875 63.01199219 1.42015625 62.85601562 0.64453125 62.6953125 C-9.38370795 60.85761333 -19.86288249 60.28735095 -29.73828125 63.27734375 C-33.08684352 64.1713393 -34.80740967 64.1579109 -38.07421875 63.16796875 C-38.06261719 62.32492188 -38.05101562 61.481875 -38.0390625 60.61328125 C-38.03003906 59.51757812 -38.02101562 58.421875 -38.01171875 57.29296875 C-37.99431641 55.65714844 -37.99431641 55.65714844 -37.9765625 53.98828125 C-37.87677572 51.21619329 -37.87677572 51.21619329 -39.07421875 49.16796875 C-40.65627074 48.50806 -42.26581378 47.91317398 -43.88671875 47.35546875 C-48.23460354 45.64737116 -50.9052757 44.50585484 -53.07421875 40.16796875 C-54.6055621 33.82691321 -54.54621819 28.87996783 -51.07421875 23.16796875 C-47.9678228 20.0615728 -45.68990898 18.37319883 -41.51171875 16.98046875 C-37.03595594 14.62052109 -36.31659361 12.10327746 -34.3203125 7.61328125 C-32.15167092 3.35757708 -29.11570354 1.17800405 -24.83984375 -0.9375 C-17.50992049 -3.30833676 -7.1734728 -2.87749474 0 0 Z " fill="#000000" transform="translate(173.07421875,53.83203125)"/>
<path d="M0 0 C0.495 5.445 0.495 5.445 1 11 C5.455 10.505 5.455 10.505 10 10 C12.10736244 14.21472489 12.29769201 16.31247231 12.3125 20.9375 C12.32925781 22.14277344 12.34601562 23.34804687 12.36328125 24.58984375 C11.87719316 29.15279965 10.32177466 31.72086324 7.0625 34.875 C5 36 5 36 2.75 35.6875 C2.1725 35.460625 1.595 35.23375 1 35 C1.49113281 34.32582031 1.98226562 33.65164062 2.48828125 32.95703125 C4.35982777 29.29615084 4.30209194 26.77461267 4.1875 22.6875 C4.16042969 21.43324219 4.13335937 20.17898437 4.10546875 18.88671875 C4.07066406 17.93410156 4.03585938 16.98148438 4 16 C3.01 15.67 2.02 15.34 1 15 C0.67 20.61 0.34 26.22 0 32 C-1.98 32 -3.96 32 -6 32 C-6.96342984 24.68825566 -7.05621807 17.48552059 -6.9375 10.125 C-6.77448174 7.09333717 -6.77448174 7.09333717 -8 5 C-11.02934491 4.34227572 -11.02934491 4.34227572 -14 4 C-13.99214478 5.16571533 -13.99214478 5.16571533 -13.98413086 6.35498047 C-13.96339844 9.86164549 -13.95035179 13.36829763 -13.9375 16.875 C-13.92912109 18.09832031 -13.92074219 19.32164062 -13.91210938 20.58203125 C-13.90727539 22.33193359 -13.90727539 22.33193359 -13.90234375 24.1171875 C-13.89448853 25.73536377 -13.89448853 25.73536377 -13.88647461 27.38623047 C-14 30 -14 30 -15 32 C-16.98 32 -18.96 32 -21 32 C-22.35700647 29.28598706 -22.1123861 27.15153684 -22.09765625 24.1171875 C-22.09443359 22.95058594 -22.09121094 21.78398437 -22.08789062 20.58203125 C-22.07951172 19.35871094 -22.07113281 18.13539063 -22.0625 16.875 C-22.05573242 15.02841797 -22.05573242 15.02841797 -22.04882812 13.14453125 C-22.0370133 10.09630608 -22.02054028 7.04817686 -22 4 C-25.49705129 5.28432339 -25.49705129 5.28432339 -29 7 C-29.33 7.99 -29.66 8.98 -30 10 C-28.68 10 -27.36 10 -26 10 C-26.33 11.65 -26.66 13.3 -27 15 C-29.375 15.1875 -29.375 15.1875 -32 15 C-34 12 -34 12 -33.875 9.0625 C-32.81840603 5.36442112 -32.18396074 4.17441221 -29 2 C-20.06354973 -0.92052289 -9.14904524 -1.82980905 0 0 Z " fill="#000000" transform="translate(34,130)"/>
<path d="M0 0 C3.38023234 4.59711598 4.05218812 8.44461783 3.5625 14.125 C1.75946376 20.17047445 -1.31340777 23.65459208 -6.4375 27.125 C-9.08190639 28.0064688 -10.71810752 28.28674818 -13.4375 28.3125 C-14.4584375 28.33376953 -14.4584375 28.33376953 -15.5 28.35546875 C-17.4375 28.125 -17.4375 28.125 -20.4375 26.125 C-20.86987305 23.95776367 -20.86987305 23.95776367 -20.94921875 21.29296875 C-21.00239258 19.84760742 -21.00239258 19.84760742 -21.05664062 18.37304688 C-21.07919922 17.36306641 -21.10175781 16.35308594 -21.125 15.3125 C-21.15916016 14.31412109 -21.19332031 13.31574219 -21.22851562 12.28710938 C-21.37179347 7.8981289 -21.45180741 3.51638833 -21.4375 -0.875 C-23.4175 -0.215 -25.3975 0.445 -27.4375 1.125 C-27.4375 2.115 -27.4375 3.105 -27.4375 4.125 C-25.7875 4.125 -24.1375 4.125 -22.4375 4.125 C-22.7675 5.775 -23.0975 7.425 -23.4375 9.125 C-25.7475 8.795 -28.0575 8.465 -30.4375 8.125 C-31.45147631 4.89871174 -31.63990769 3.56017654 -30.1875 0.4375 C-27.8053926 -2.71028478 -26.06547151 -3.75423625 -22.1875 -4.5 C-14.07026571 -5.31172343 -6.68885832 -5.14527563 0 0 Z M-12.4375 -0.875 C-13.6880313 0.15214661 -13.6880313 0.15214661 -13.55102539 2.34985352 C-13.54578857 3.30819092 -13.54055176 4.26652832 -13.53515625 5.25390625 C-13.53193359 6.28837891 -13.52871094 7.32285156 -13.52539062 8.38867188 C-13.51701172 9.47728516 -13.50863281 10.56589844 -13.5 11.6875 C-13.49548828 12.77998047 -13.49097656 13.87246094 -13.48632812 14.99804688 C-13.47449826 17.70708495 -13.45801543 20.41601599 -13.4375 23.125 C-11.7875 23.455 -10.1375 23.785 -8.4375 24.125 C-5.37376628 19.91033985 -5.0315371 16.78548365 -5.0625 11.625 C-5.05089844 9.69140625 -5.05089844 9.69140625 -5.0390625 7.71875 C-5.45459265 3.97083101 -6.00072574 1.99179325 -8.4375 -0.875 C-9.7575 -0.875 -11.0775 -0.875 -12.4375 -0.875 Z " fill="#000000" transform="translate(107.4375,134.875)"/>
<path d="M0 0 C1.051875 -0.02126953 1.051875 -0.02126953 2.125 -0.04296875 C4 0.1875 4 0.1875 6 2.1875 C6.5 4.5 6.5 4.5 6 7.1875 C3.1875 10 3.1875 10 0 12.1875 C-0.99 12.1875 -1.98 12.1875 -3 12.1875 C-0.96197865 16.24774321 -0.96197865 16.24774321 3 18.1875 C4.1446875 17.94 4.1446875 17.94 5.3125 17.6875 C8.46240537 17.10147109 10.88520622 17.53556642 14 18.1875 C13.54324344 15.21858238 12.73433888 13.8171845 10.9375 11.3125 C8.79363561 7.85465422 8.36561356 6.17507194 9 2.1875 C12.66865241 -0.25826827 14.67200343 -0.04857254 19 0.1875 C19.66 0.5175 20.32 0.8475 21 1.1875 C21.625 3.75 21.625 3.75 22 6.1875 C20.68 6.1875 19.36 6.1875 18 6.1875 C18 5.1975 18 4.2075 18 3.1875 C17.01 3.1875 16.02 3.1875 15 3.1875 C16.14499107 4.66731874 17.291017 6.14633682 18.4375 7.625 C19.07558594 8.44871094 19.71367187 9.27242187 20.37109375 10.12109375 C21.83582197 12.06251267 21.83582197 12.06251267 23 13.1875 C23.45762712 18.45021186 23.45762712 18.45021186 21.875 21 C19.15647194 22.72173444 17.22467704 23.06347396 14 23.1875 C12.865625 22.65125 11.73125 22.115 10.5625 21.5625 C5.8545625 19.74540131 4.48704919 21.21949597 0 23.1875 C-4.16157942 23.07211425 -7.09289936 22.12294753 -10 19.125 C-11.39031711 15.0409435 -11.82361626 11.44784231 -11 7.1875 C-8.35965783 2.48377932 -5.38983969 0.04953897 0 0 Z M-2 3.1875 C-2.66 5.1675 -3.32 7.1475 -4 9.1875 C-2.68 8.8575 -1.36 8.5275 0 8.1875 C-0.33 6.5375 -0.66 4.8875 -1 3.1875 C-1.33 3.1875 -1.66 3.1875 -2 3.1875 Z " fill="#000000" transform="translate(199,139.8125)"/>
<path d="M0 0 C1.9375 0.0625 1.9375 0.0625 4 1 C5.25 4.0625 5.25 4.0625 6 7 C9.3 7.66 12.6 8.32 16 9 C16 9.66 16 10.32 16 11 C15.195625 11.5775 14.39125 12.155 13.5625 12.75 C10.75932032 14.79319638 10.75932032 14.79319638 10.1875 18 C10.04189846 20.32962462 10 22.66582976 10 25 C9.27554688 24.91621094 8.55109375 24.83242187 7.8046875 24.74609375 C2.6650818 24.20472195 -1.91365942 23.76278202 -7 25 C-6.896875 23.783125 -6.79375 22.56625 -6.6875 21.3125 C-6.66140065 17.61944139 -6.85063517 17.17234403 -9.4375 14.1875 C-10.283125 13.465625 -11.12875 12.74375 -12 12 C-12.33 11.01 -12.66 10.02 -13 9 C-9.7 8.34 -6.4 7.68 -3 7 C-2.690625 6.030625 -2.38125 5.06125 -2.0625 4.0625 C-1 1 -1 1 0 0 Z " fill="#000000" transform="translate(177,215)"/>
<path d="M0 0 C2.33294775 -0.04241723 4.66702567 -0.04092937 7 0 C8 1 8 1 8.09765625 4.59765625 C8.0909822 6.08596867 8.07902183 7.57426432 8.0625 9.0625 C8.05798828 9.82111328 8.05347656 10.57972656 8.04882812 11.36132812 C8.0370068 13.24091871 8.01907078 15.12046899 8 17 C8.99 16.67 9.98 16.34 11 16 C10.98839844 14.92878906 10.97679687 13.85757813 10.96484375 12.75390625 C10.95546701 11.35677257 10.94636669 9.95963701 10.9375 8.5625 C10.92493164 7.50192383 10.92493164 7.50192383 10.91210938 6.41992188 C10.90346412 4.61306441 10.94779989 2.80612397 11 1 C12 0 12 0 15 -0.125 C18 0 18 0 19 1 C19.21259101 3.42117545 19.37664599 5.82403778 19.5 8.25 C19.72489412 12.57296476 20.01623971 16.76983077 21 21 C18.73538929 22.37494222 17.54345306 23.07991957 14.875 22.6875 C13 22 13 22 11 21 C8.6505947 21.60760482 6.31470912 22.27129528 4 23 C1.2785107 21.10679005 0.97332017 19.86660084 0.3125 16.5625 C-0.20197527 11.0576146 -0.08283653 5.52243507 0 0 Z " fill="#000000" transform="translate(260,140)"/>
<path d="M0 0 C2.625 0.125 2.625 0.125 5.625 1.125 C6.285 0.795 6.945 0.465 7.625 0.125 C10.625 -0.0625 10.625 -0.0625 13.625 0.125 C16.67115985 3.17115985 16.60672522 6.07028404 16.6796875 10.28125 C16.19364754 19.32581967 16.19364754 19.32581967 13.3125 23.375 C10.96074323 24.9063765 9.39159252 25.81760083 6.625 26.125 C6.295 25.135 5.965 24.145 5.625 23.125 C6.285 23.125 6.945 23.125 7.625 23.125 C7.79343931 20.87513201 7.95968654 18.62509983 8.125 16.375 C8.2178125 15.12203125 8.310625 13.8690625 8.40625 12.578125 C8.56338402 10.09765229 8.625 7.61044483 8.625 5.125 C7.635 5.455 6.645 5.785 5.625 6.125 C5.56441406 7.19621094 5.50382812 8.26742187 5.44140625 9.37109375 C5.35701463 10.76824391 5.27236594 12.16537857 5.1875 13.5625 C5.14818359 14.26955078 5.10886719 14.97660156 5.06835938 15.70507812 C4.73828125 21.01171875 4.73828125 21.01171875 3.625 22.125 C1.125 22.25 1.125 22.25 -1.375 22.125 C-3.70173396 19.79826604 -2.85362517 14.26775376 -3 11.125 C-3.0515625 10.18398437 -3.103125 9.24296875 -3.15625 8.2734375 C-3.20007813 7.37882813 -3.24390625 6.48421875 -3.2890625 5.5625 C-3.3298291 4.73621094 -3.3705957 3.90992188 -3.41259766 3.05859375 C-3.35601684 0.14872337 -2.89658993 0.1524521 0 0 Z " fill="#000000" transform="translate(324.375,139.875)"/>
<path d="M0 0 C2.98732083 0.06723873 4.44165609 0.21624444 7.125 1.625 C10.42803041 5.34090921 9.74049181 9.83264475 9.6875 14.5 C9.68298828 15.24958984 9.67847656 15.99917969 9.67382812 16.77148438 C9.66206354 18.61852383 9.64412865 20.46552213 9.625 22.3125 C7.14529371 23.02397691 5.82017736 23.35358997 3.25 22.8125 C0.12853897 22.21793599 -2.28654522 22.66607923 -5.375 23.3125 C-9.35603187 19.09019347 -9.35603187 19.09019347 -9.4375 15.75 C-7.51345493 11.33601426 -3.64900005 9.21205558 0.625 7.3125 C0.295 5.9925 -0.035 4.6725 -0.375 3.3125 C-1.365 3.8075 -1.365 3.8075 -2.375 4.3125 C-2.375 5.6325 -2.375 6.9525 -2.375 8.3125 C-4.025 7.9825 -5.675 7.6525 -7.375 7.3125 C-6.54142433 2.03318743 -5.54583595 0.02763706 0 0 Z M-0.375 11.3125 C-2.68171915 14.02799154 -2.68171915 14.02799154 -2 16.5 C-1.79375 17.098125 -1.5875 17.69625 -1.375 18.3125 C-0.385 17.9825 0.605 17.6525 1.625 17.3125 C1.625 15.3325 1.625 13.3525 1.625 11.3125 C0.965 11.3125 0.305 11.3125 -0.375 11.3125 Z " fill="#000000" transform="translate(133.375,139.6875)"/>
<path d="M0 0 C1.299375 0.02900391 1.299375 0.02900391 2.625 0.05859375 C3.49125 0.05988281 4.3575 0.06117188 5.25 0.0625 C8.03942784 0.5717541 8.90129446 1.29298261 10.625 3.49609375 C12.2748007 6.79569516 12.00758361 10.48737259 12.1875 14.12109375 C12.23068359 14.92289063 12.27386719 15.7246875 12.31835938 16.55078125 C12.42451457 18.53234485 12.52526855 20.51419646 12.625 22.49609375 C7.8671875 23.55859375 7.8671875 23.55859375 5.6875 22.99609375 C3.47491374 22.30362446 3.47491374 22.30362446 0.625 23.12109375 C-2.375 23.49609375 -2.375 23.49609375 -4.75 22.49609375 C-6.375 20.49609375 -6.375 20.49609375 -7.125 17.12109375 C-6.375 13.49609375 -6.375 13.49609375 -4.6484375 11.96484375 C-2.59981274 10.68352208 -0.54754937 9.55183059 1.625 8.49609375 C2.285 8.16609375 2.945 7.83609375 3.625 7.49609375 C3.625 6.50609375 3.625 5.51609375 3.625 4.49609375 C2.635 4.49609375 1.645 4.49609375 0.625 4.49609375 C0.625 5.81609375 0.625 7.13609375 0.625 8.49609375 C-1.025 8.49609375 -2.675 8.49609375 -4.375 8.49609375 C-5.0625 6.74609375 -5.0625 6.74609375 -5.375 4.49609375 C-3.86293947 1.76022504 -3.11442793 0.65054662 0 0 Z M2.625 11.49609375 C1.965 12.15609375 1.305 12.81609375 0.625 13.49609375 C0.94541397 16.09889943 0.94541397 16.09889943 1.625 18.49609375 C2.615 18.16609375 3.605 17.83609375 4.625 17.49609375 C4.625 15.51609375 4.625 13.53609375 4.625 11.49609375 C3.965 11.49609375 3.305 11.49609375 2.625 11.49609375 Z " fill="#000000" transform="translate(305.375,139.50390625)"/>
<path d="M0 0 C0.7734375 -0.01675781 1.546875 -0.03351563 2.34375 -0.05078125 C5.02867986 0.40157106 5.85878405 1.17591705 7.5 3.3125 C8.75433458 7.07550374 8.60695422 10.58460909 8.5625 14.5 C8.55798828 15.24958984 8.55347656 15.99917969 8.54882812 16.77148438 C8.53706354 18.61852383 8.51912865 20.46552213 8.5 22.3125 C5.99284276 23.03337396 4.66682561 23.34672064 2.0625 22.8125 C-0.50872138 22.12520294 -0.50872138 22.12520294 -3.0625 22.9375 C-5.5 23.3125 -5.5 23.3125 -7.8125 22.25 C-9.5 20.3125 -9.5 20.3125 -10.0625 17.4375 C-9.3144683 13.28176832 -7.72611695 11.96508505 -4.5 9.3125 C-2.86622358 8.25962186 -1.20818403 7.2397999 0.5 6.3125 C0.17 5.6525 -0.16 4.9925 -0.5 4.3125 C-1.49 3.9825 -2.48 3.6525 -3.5 3.3125 C-3.5 4.9625 -3.5 6.6125 -3.5 8.3125 C-4.82 8.3125 -6.14 8.3125 -7.5 8.3125 C-7.6875 5.4375 -7.6875 5.4375 -7.5 2.3125 C-4.40219052 0.24729368 -3.5459519 0.01772976 0 0 Z M-1.5 11.3125 C-2.60636395 13.70318734 -2.60636395 13.70318734 -3.5 16.3125 C-3.17 16.9725 -2.84 17.6325 -2.5 18.3125 C-1.51 18.3125 -0.52 18.3125 0.5 18.3125 C0.83 16.3325 1.16 14.3525 1.5 12.3125 C0.51 11.9825 -0.48 11.6525 -1.5 11.3125 Z " fill="#000000" transform="translate(247.5,139.6875)"/>
<path d="M0 0 C2.4375 1.5 2.4375 1.5 4 3 C3.875 5.3125 3.875 5.3125 3 8 C-0.78518582 10.88869445 -3.62885335 11.05651844 -8.1875 10.75 C-17.56826818 10.45605222 -24.21841619 17.26173678 -31 23 C-31.66 23 -32.32 23 -33 23 C-33.8125 21.375 -33.8125 21.375 -34 19 C-30.30141944 13.5818389 -26.20394263 11.13247481 -20.375 8.3125 C-18.85945232 7.56368633 -17.34632488 6.80994964 -15.8359375 6.05078125 C-15.17126465 5.72762939 -14.5065918 5.40447754 -13.82177734 5.0715332 C-11.88058485 3.92976239 -10.55775658 2.6129397 -9 1 C-5.94306678 -0.52846661 -3.37015453 -0.23242445 0 0 Z " fill="#000000" transform="translate(258,175)"/>
<path d="M0 0 C2 2 2 2 2.5625 4.3125 C1.7774247 8.06341532 -0.18832655 9.01894265 -3.2734375 11.08203125 C-5 12 -5 12 -7 12 C-6.51792644 14.50358872 -6.51792644 14.50358872 -5 17 C-1.46485707 18.37967524 -1.46485707 18.37967524 2 19 C0.20116115 21.29851631 -0.98536049 21.99544549 -3.8125 22.875 C-7.74712989 23.02929921 -9.70349288 22.09777726 -13 20 C-15.83628194 15.74557709 -15.51845373 11.99310819 -15 7 C-13.76777541 4.04266099 -12.80857462 2.62889137 -10.3125 0.6875 C-6.75125792 -0.37124765 -3.71631024 -0.23976195 0 0 Z M-6 3 C-8.2773501 5.81509993 -8.2773501 5.81509993 -8 9 C-6.68 8.34 -5.36 7.68 -4 7 C-4.33 5.68 -4.66 4.36 -5 3 C-5.33 3 -5.66 3 -6 3 Z " fill="#000000" transform="translate(64,140)"/>
<path d="M0 0 C0.99 0 1.98 0 3 0 C3.66 1.98 4.32 3.96 5 6 C7.31 6.33 9.62 6.66 12 7 C11.01772423 9.19123057 10.25591309 10.77479648 8.4375 12.375 C6.37721065 14.70402275 6.3360683 16.97538534 6 20 C5.443125 19.855625 4.88625 19.71125 4.3125 19.5625 C3.549375 19.376875 2.78625 19.19125 2 19 C0.824375 18.690625 0.824375 18.690625 -0.375 18.375 C-3.46036101 17.93423414 -5.96491869 18.36475042 -9 19 C-8.91621094 18.40832031 -8.83242187 17.81664062 -8.74609375 17.20703125 C-8.19110576 12.90060543 -7.76773348 9.24447356 -9 5 C-7.88625 4.731875 -6.7725 4.46375 -5.625 4.1875 C-1.78159049 3.34190981 -1.78159049 3.34190981 0 0 Z " fill="#000000" transform="translate(207,227)"/>
<path d="M0 0 C2.42289685 0.41774084 3.70879065 0.69612938 5.4375 2.5 C7.48618804 4.46674052 9.24831513 4.53467443 12 5 C11.85866501 6.77119803 11.71176792 8.54195287 11.5625 10.3125 C11.48128906 11.29863281 11.40007812 12.28476563 11.31640625 13.30078125 C11 16 11 16 10 19 C8.3603125 18.690625 8.3603125 18.690625 6.6875 18.375 C2.9161599 17.59653475 2.9161599 17.59653475 0 20 C-0.99 20 -1.98 20 -3 20 C-3.42317708 17.98177083 -3.84635417 15.96354167 -4.26953125 13.9453125 C-4.92308838 11.62953451 -4.92308838 11.62953451 -8 10 C-7.67 9.01 -7.34 8.02 -7 7 C-6.38125 6.71125 -5.7625 6.4225 -5.125 6.125 C-2.32079102 4.64041877 -1.45276712 2.76025753 0 0 Z " fill="#000000" transform="translate(147,227)"/>
<path d="M0 0 C0 1.32 0 2.64 0 4 C-1.73636719 4.36351562 -1.73636719 4.36351562 -3.5078125 4.734375 C-5.04702146 5.07225014 -6.58607601 5.41082925 -8.125 5.75 C-8.88554687 5.90726563 -9.64609375 6.06453125 -10.4296875 6.2265625 C-16.74355022 7.64173863 -21.31473317 10.23206412 -26 14.75 C-29 17 -29 17 -32.1875 17.4375 C-35 17 -35 17 -38 15 C-37.70564542 12.25269063 -37.02616625 11.02977539 -35.1875 8.9375 C-31.22883814 6.53125455 -27.44812647 5.73488311 -22.9375 4.80859375 C-19.86620839 3.96317172 -17.66652201 2.71320585 -15 1 C-10.1676196 -0.51874812 -5.01412699 -0.08762552 0 0 Z " fill="#000000" transform="translate(286,181)"/>
<path d="M0 0 C0 0.99 0 1.98 0 3 C-0.91998779 3.06469482 -1.83997559 3.12938965 -2.7878418 3.19604492 C-19.91001954 4.44111933 -36.49049103 5.81986751 -53.08398438 10.49707031 C-55.69614655 11.1827296 -58.32856844 11.61715153 -61 12 C-61 11.01 -61 10.02 -61 9 C-57.544636 7.86574118 -54.08521896 6.74435196 -50.625 5.625 C-49.17673828 5.14933594 -49.17673828 5.14933594 -47.69921875 4.6640625 C-31.55239694 -0.53759822 -16.78821498 -1.20047742 0 0 Z " fill="#000000" transform="translate(81,187)"/>
<path d="M0 0 C0.33 0.99 0.66 1.98 1 3 C0.67 3.66 0.34 4.32 0 5 C-0.99 5.33 -1.98 5.66 -3 6 C-2.360625 6.70125 -1.72125 7.4025 -1.0625 8.125 C1.24345677 11.33936398 2.0824114 13.04425268 2 17 C0.0625 19.9375 0.0625 19.9375 -3 22 C-6.05137317 22.28533833 -7.94351229 21.80170169 -11 21 C-11.66 20.01 -12.32 19.02 -13 18 C-10 17 -10 17 -7 17 C-7.42924153 14.10261968 -8.129344 12.83832 -10 10.5 C-11.89232424 8.1345947 -12.80767799 6.98099118 -13 4 C-12.4375 1.875 -12.4375 1.875 -11 0 C-6.72525398 -2.08987583 -4.14573577 -2.48744146 0 0 Z M-6 2 C-5.67 2.99 -5.34 3.98 -5 5 C-4.34 4.01 -3.68 3.02 -3 2 C-3.99 2 -4.98 2 -6 2 Z " fill="#000000" transform="translate(158,141)"/>
<path d="M0 0 C0.99 0 1.98 0 3 0 C3.66 1.32 4.32 2.64 5 4 C6.65 3.67 8.3 3.34 10 3 C9.67 4.32 9.34 5.64 9 7 C7.35 7.33 5.7 7.66 4 8 C3.945862 10.24973447 3.90714509 12.49984383 3.875 14.75 C3.85179687 16.00296875 3.82859375 17.2559375 3.8046875 18.546875 C3.98462698 21.72820492 4.31001418 23.36521896 6 26 C3 28 3 28 0.4375 27.875 C-2 27 -2 27 -3.1171875 25.41796875 C-4.31746221 22.13049067 -4.42566213 18.89849674 -4.5625 15.4375 C-4.78072406 10.14443193 -4.78072406 10.14443193 -6 5 C-5.195625 4.54625 -4.39125 4.0925 -3.5625 3.625 C-0.91143428 2.25274335 -0.91143428 2.25274335 0 0 Z " fill="#000000" transform="translate(229,135)"/>
<path d="M0 0 C0.66 0 1.32 0 2 0 C2.33 1.65 2.66 3.3 3 5 C3.33 4.34 3.66 3.68 4 3 C5.32 3.33 6.64 3.66 8 4 C7.75 5.875 7.75 5.875 7 8 C4.953125 9.1328125 4.953125 9.1328125 3 10 C2.97282308 12.06242617 2.9535242 14.12495703 2.9375 16.1875 C2.92589844 17.33605469 2.91429687 18.48460937 2.90234375 19.66796875 C2.98807168 22.59300586 3.32150977 25.16316291 4 28 C0.625 28.125 0.625 28.125 -3 28 C-5.79490852 25.20509148 -5.41590125 22.43828253 -5.5625 18.6875 C-5.77051417 14.35316388 -6.00980109 10.23084989 -7 6 C-6.401875 5.7525 -5.80375 5.505 -5.1875 5.25 C-2.71222841 3.83555909 -1.66569196 2.27139812 0 0 Z " fill="#000000" transform="translate(350,134)"/>
<path d="M0 0 C3.34252724 -0.07427838 5.8035914 -0.06546953 9 1 C11.63804589 0.60602665 11.63804589 0.60602665 14 0 C14.33 1.65 14.66 3.3 15 5 C13.02 5.66 11.04 6.32 9 7 C8.93941406 7.99902344 8.87882813 8.99804688 8.81640625 10.02734375 C8.73261719 11.31769531 8.64882812 12.60804688 8.5625 13.9375 C8.48128906 15.22527344 8.40007812 16.51304687 8.31640625 17.83984375 C8 21 8 21 7 22 C5.00041636 22.04080783 2.99954746 22.04254356 1 22 C-0.20029908 19.59940183 -0.11459743 18.10639351 -0.09765625 15.4296875 C-0.09443359 14.53378906 -0.09121094 13.63789063 -0.08789062 12.71484375 C-0.07951172 11.77769531 -0.07113281 10.84054688 -0.0625 9.875 C-0.05798828 8.93011719 -0.05347656 7.98523438 -0.04882812 7.01171875 C-0.03702357 4.67441613 -0.02055759 2.33723939 0 0 Z " fill="#000000" transform="translate(172,140)"/>
<path d="M0 0 C1.2065625 0.0309375 1.2065625 0.0309375 2.4375 0.0625 C4.01784223 4.99139955 2.61752355 8.51072445 0.4375 13.0625 C-4.83346985 21.27138747 -11.48106536 27.95422935 -21.125 30.4375 C-22.259375 30.64375 -23.39375 30.85 -24.5625 31.0625 C-24.5625 30.0725 -24.5625 29.0825 -24.5625 28.0625 C-23.78326172 27.69898438 -23.78326172 27.69898438 -22.98828125 27.328125 C-15.38624096 23.67464907 -10.26019567 19.78940887 -6.5625 12.0625 C-5.62444678 9.15531026 -4.84382136 6.25738737 -4.140625 3.28515625 C-3.32908575 0.16511684 -3.28719285 0.08017544 0 0 Z " fill="#000000" transform="translate(324.5625,179.9375)"/>
<path d="M0 0 C6 0 6 0 8.0625 0.5625 C10.59168692 1.13360672 12.51188197 0.62202951 15 0 C15 1.65 15 3.3 15 5 C13.02 5.66 11.04 6.32 9 7 C8.67 11.62 8.34 16.24 8 21 C6.35 21.66 4.7 22.32 3 23 C2.34 22.67 1.68 22.34 1 22 C0.67 14.74 0.34 7.48 0 0 Z " fill="#000000" transform="translate(283,140)"/>
<path d="M0 0 C1.99954746 -0.04254356 4.00041636 -0.04080783 6 0 C7 1 7 1 7.11352539 3.04125977 C7.10828857 3.91580811 7.10305176 4.79035645 7.09765625 5.69140625 C7.09443359 6.63564453 7.09121094 7.57988281 7.08789062 8.55273438 C7.07951172 9.54595703 7.07113281 10.53917969 7.0625 11.5625 C7.05798828 12.55958984 7.05347656 13.55667969 7.04882812 14.58398438 C7.03700007 17.05604849 7.02051849 19.52799518 7 22 C5.00045254 22.04254356 2.99958364 22.04080783 1 22 C0 21 0 21 -0.11352539 18.95874023 C-0.10828857 18.08419189 -0.10305176 17.20964355 -0.09765625 16.30859375 C-0.09443359 15.36435547 -0.09121094 14.42011719 -0.08789062 13.44726562 C-0.07951172 12.45404297 -0.07113281 11.46082031 -0.0625 10.4375 C-0.05798828 9.44041016 -0.05347656 8.44332031 -0.04882812 7.41601562 C-0.03700007 4.94395151 -0.02051849 2.47200482 0 0 Z " fill="#000000" transform="translate(114,140)"/>
<path d="M0 0 C1.051875 0.13341797 1.051875 0.13341797 2.125 0.26953125 C2.82625 0.34558594 3.5275 0.42164063 4.25 0.5 C6.125 1.08203125 6.125 1.08203125 8.125 4.08203125 C8.1015625 6.78125 8.1015625 6.78125 7.75 9.76953125 C7.58371094 11.26033203 7.58371094 11.26033203 7.4140625 12.78125 C7.27097656 13.92013672 7.27097656 13.92013672 7.125 15.08203125 C4.73935923 14.50618693 2.45817216 13.8597553 0.125 13.08203125 C-0.865 14.07203125 -1.855 15.06203125 -2.875 16.08203125 C-4.74743981 14.20959144 -4.04880392 11.14543607 -4.0625 8.64453125 C-4.07667969 7.47019531 -4.09085937 6.29585937 -4.10546875 5.0859375 C-3.85801111 1.86059984 -3.5296257 0.15442112 0 0 Z M0.125 4.08203125 C0.125 5.40203125 0.125 6.72203125 0.125 8.08203125 C1.445 7.75203125 2.765 7.42203125 4.125 7.08203125 C3.795 6.09203125 3.465 5.10203125 3.125 4.08203125 C2.135 4.08203125 1.145 4.08203125 0.125 4.08203125 Z " fill="#000000" transform="translate(111.875,174.91796875)"/>
<path d="M0 0 C8.19057816 -0.48179872 8.19057816 -0.48179872 11.625 1.5625 C13.60470045 5.07196898 13.04088716 7.18341375 12 11 C10.734375 12.703125 10.734375 12.703125 9 14 C6.73828125 14.29296875 6.73828125 14.29296875 4.3125 14.1875 C2.889375 14.125625 1.46625 14.06375 0 14 C0 9.38 0 4.76 0 0 Z M4 3 C3.67 4.98 3.34 6.96 3 9 C5.475 9.495 5.475 9.495 8 10 C8.67958603 7.60280568 8.67958603 7.60280568 9 5 C8.34 4.34 7.68 3.68 7 3 C6.01 3 5.02 3 4 3 Z " fill="#000000" transform="translate(89,176)"/>
<path d="M0 0 C1.2065625 0.0309375 1.2065625 0.0309375 2.4375 0.0625 C2.81968767 1.71864657 3.15145102 3.38707024 3.4375 5.0625 C2.4375 6.0625 2.4375 6.0625 -0.125 6.125 C-1.3315625 6.0940625 -1.3315625 6.0940625 -2.5625 6.0625 C-2.94468767 4.40635343 -3.27645102 2.73792976 -3.5625 1.0625 C-2.5625 0.0625 -2.5625 0.0625 0 0 Z " fill="#000000" transform="translate(117.5625,132.9375)"/>
</svg>
