<svg xmlns="http://www.w3.org/2000/svg" xmlns:xlink="http://www.w3.org/1999/xlink" version="1.1" x="0px" y="0px" viewBox="0 0 100 125" enable-background="new 0 0 100 100" xml:space="preserve"><polygon fill="#000000" points="4.4,36.633 4.904,40.219 11.835,30.273 6.917,26.211 5.09,30.696 "/><polygon fill="#000000" points="88.964,30.276 95.938,40.242 96.465,36.64 95.67,30.695 93.929,26.219 "/><polygon fill="#000000" points="58.08,75.02 50.397,71.648 42.714,75.02 50.397,87.137 "/><polygon fill="#000000" points="70.35,17.617 76.903,13.92 73.676,13.469 67.699,14.16 62.143,16.369 59.768,18.163 "/><polygon fill="#000000" points="87.695,31.846 83.264,38.883 81.294,55.377 95.261,42.657 "/><polygon fill="#000000" points="39.524,73.615 33.721,64.486 22.398,59.604 27.189,73.615 "/><polygon fill="#000000" points="75.582,26.095 70.396,19.819 55.059,28.47 "/><polygon fill="#000000" points="45.724,28.467 30.368,19.822 25.268,26.094 "/><polygon fill="#000000" points="18.297,36.461 21.691,28.411 14.631,30.64 "/><path fill="#000000" d="M76.851,27.902l-26.342,3.047c-0.037,0.005-0.074,0.006-0.109,0.006c-0.001,0-0.001,0-0.002,0h-0.001l0,0  l0,0h-0.001c-0.001,0-0.001,0-0.002,0c-0.035,0-0.072-0.001-0.109-0.006l-26.273-3.048L19.56,38.464l15.477,24.478l15.359,6.592  l15.325-6.592L81.236,38.46L76.851,27.902z"/><polygon fill="#000000" points="88.006,28.553 93.006,24.467 89.838,20.342 85.139,16.646 81.82,15.235 "/><polygon fill="#000000" points="19.5,55.373 17.531,38.883 13.101,31.849 5.568,42.657 "/><polygon fill="#000000" points="52.832,70.598 59.131,73.361 63.887,65.844 "/><polygon fill="#000000" points="36.882,65.845 41.662,73.361 47.961,70.599 "/><polygon fill="#000000" points="34.207,19.756 47.731,27.372 43.527,20.237 "/><polygon fill="#000000" points="14.949,28.507 22.83,26.018 28.654,18.854 21.353,14.718 "/><polygon fill="#000000" points="53.051,27.374 66.558,19.756 57.233,20.237 "/><polygon fill="#000000" points="80.855,42.685 68.879,61.583 79.125,57.176 "/><polygon fill="#000000" points="31.884,61.582 19.94,42.693 21.669,57.178 "/><polygon fill="#000000" points="72.112,18.851 78.031,26.016 85.843,28.5 79.44,14.717 "/><polygon fill="#000000" points="79.164,28.413 82.504,36.451 86.164,30.639 "/><polygon fill="#000000" points="78.396,59.602 67.037,64.488 61.264,73.615 73.605,73.615 "/><polygon fill="#000000" points="12.791,28.547 18.974,15.235 15.653,16.646 10.925,20.339 7.847,24.463 "/><polygon fill="#000000" points="59.346,76.648 52.913,86.791 55.1,85.836 60.035,83.387 61.807,82.299 "/><polygon fill="#000000" points="80.498,59.453 76.477,71.214 77.637,70.126 81.456,66.058 84.338,62.469 "/><polygon fill="#000000" points="60.984,75.555 63.479,81.281 64.768,80.504 69.327,77.299 71.52,75.555 "/><polygon fill="#000000" points="30.41,17.617 41.01,18.164 38.648,16.367 33.062,14.16 27.119,13.469 23.883,13.921 "/><polygon fill="#000000" points="85.51,60.921 88.129,57.253 90.916,52.432 93.469,47.574 93.925,46.498 81.522,57.791 "/><polygon fill="#000000" points="41.449,76.648 38.988,82.299 40.757,83.385 45.67,85.842 47.889,86.803 "/><polygon fill="#000000" points="20.297,59.453 16.456,62.469 19.338,66.058 23.158,70.126 24.318,71.214 "/><polygon fill="#000000" points="39.81,75.555 29.275,75.555 31.479,77.308 35.986,80.502 37.312,81.289 "/><polygon fill="#000000" points="19.273,57.791 6.865,46.465 7.326,47.576 9.879,52.432 12.732,57.247 15.293,60.914 "/><text x="0" y="115" fill="#000000" font-size="5px" font-weight="bold" font-family="'Helvetica Neue', Helvetica, Arial-Unicode, Arial, Sans-serif">Created by Lluisa Iborra</text><text x="0" y="120" fill="#000000" font-size="5px" font-weight="bold" font-family="'Helvetica Neue', Helvetica, Arial-Unicode, Arial, Sans-serif">from the Noun Project</text></svg>