<?xml version="1.0" standalone="no"?>
<!DOCTYPE svg PUBLIC "-//W3C//DTD SVG 20010904//EN"
 "http://www.w3.org/TR/2001/REC-SVG-20010904/DTD/svg10.dtd">
<svg version="1.0" xmlns="http://www.w3.org/2000/svg"
 width="640.000000pt" height="640.000000pt" viewBox="0 0 640.000000 640.000000"
 preserveAspectRatio="xMidYMid meet">

<g transform="translate(0.000000,640.000000) scale(0.100000,-0.100000)"
fill="#000000" stroke="none">
<path d="M5251 5853 c-2 -70 -34 -285 -57 -386 -55 -248 -173 -528 -302 -721
-224 -332 -522 -598 -962 -856 -126 -74 -491 -262 -650 -334 -581 -263 -780
-356 -920 -429 -571 -298 -878 -566 -1057 -920 -77 -153 -79 -179 -7 -86 257
333 632 596 1209 849 66 29 139 61 162 71 24 11 199 82 390 158 513 205 661
269 913 396 476 238 788 492 1007 820 143 213 233 457 280 757 14 88 17 167
16 363 0 138 -5 273 -11 300 -8 40 -10 44 -11 18z"/>
<path d="M5332 4949 c-43 -217 -144 -475 -262 -668 -155 -254 -396 -497 -683
-689 -290 -195 -554 -322 -1282 -617 -798 -324 -1172 -535 -1449 -820 -256
-263 -335 -542 -231 -820 69 -184 125 -274 240 -390 172 -172 392 -281 708
-351 92 -21 149 -26 324 -31 240 -6 386 5 513 41 181 50 300 115 405 220 135
136 180 234 156 341 -28 126 -98 217 -258 336 -59 44 -93 76 -93 88 0 10 23
49 50 87 62 85 87 136 102 205 22 109 -21 211 -119 284 -143 104 -501 184
-848 188 l-170 2 -12 -145 c-6 -80 -11 -165 -12 -190 l0 -45 16 30 c23 45 122
142 173 171 67 38 270 86 270 65 0 -4 -24 -13 -52 -20 -125 -32 -274 -134
-312 -215 -45 -96 21 -246 147 -331 101 -69 307 -130 413 -123 l49 3 -95 47
c-257 129 -351 273 -275 424 39 79 147 184 188 184 25 0 22 -6 -33 -68 -128
-144 -133 -279 -14 -398 67 -67 182 -135 303 -178 109 -39 200 -97 283 -179
94 -95 129 -158 136 -247 6 -84 -18 -138 -96 -217 -118 -119 -274 -186 -509
-219 -194 -27 -511 -7 -717 46 -402 102 -626 355 -626 705 0 107 16 174 66
282 79 166 307 391 530 523 38 23 105 64 149 92 44 28 161 90 260 138 180 88
280 131 685 295 767 310 1136 520 1435 819 307 307 500 712 554 1166 13 111
25 290 19 290 -2 0 -14 -50 -26 -111z"/>
<path d="M3686 4517 c-68 -150 -255 -363 -421 -479 -191 -133 -356 -215 -905
-448 -179 -76 -362 -155 -407 -175 l-82 -38 -168 60 c-395 143 -557 183 -770
190 -135 5 -159 3 -221 -16 -88 -26 -181 -88 -227 -150 -37 -52 -90 -159 -82
-167 2 -3 66 18 141 46 140 51 192 61 202 36 8 -22 -26 -87 -50 -95 -12 -5
-84 -11 -161 -15 -236 -12 -373 -49 -419 -112 -23 -32 -31 -99 -17 -137 l11
-27 38 25 c178 118 553 -43 761 -329 54 -73 114 -192 138 -273 10 -35 20 -63
23 -63 3 0 18 34 33 75 58 156 229 365 395 485 196 141 473 289 867 460 417
182 623 285 810 407 261 170 420 357 494 580 26 76 50 203 40 203 -2 0 -13
-20 -23 -43z"/>
</g>
</svg>
