<svg xmlns="http://www.w3.org/2000/svg" xmlns:xlink="http://www.w3.org/1999/xlink" version="1.1" x="0px" y="0px" viewBox="0 0 64 80" style="enable-background:new 0 0 64 64;" xml:space="preserve"><g><path d="M48,33.3c-0.1-1.9-0.1-3.8,0-5.6c0-0.8,0-1.6,0-2.5l0-2.1v-0.6c0-2.3,0-4.6,0-6.9c-2.9-0.7-5.8-1.4-8.6-2.1   c-2.3-0.6-4.7-1.2-7-1.8c-0.2,0-0.4,0-0.5,0c-2.3,0.6-4.6,1.2-6.9,1.7C22,14.1,19,14.9,16,15.6l0,1.9c0,5.2,0.1,10.6,0,16   c-0.1,3.7,1.1,7,3.5,9.9c3,3.6,6.9,6.4,12.4,8.9c4.7-2,8.4-4.5,11.3-7.6C46.6,41.3,48.1,37.5,48,33.3z M42.4,25.7   c-1.4,1.8-2.8,3.6-4.2,5.4c-2.3,3-4.6,5.9-6.9,8.9c-1.3,1.7-2.3,1.6-3.6,0c-2-2.8-4.1-5.6-6.1-8.4c-0.7-0.9-0.7-1.9,0-2.6   c0.7-0.6,1.7-0.6,2.5,0.2c1.5,1.3,3,2.6,4.5,3.9c0.2,0.2,0.5,0.4,1,0.8c0.2-0.3,0.3-0.6,0.5-0.9c3.1-3.2,6.3-6.3,9.5-9.4   c0.3-0.3,0.8-0.7,1.2-0.8c0.7-0.2,1.4,0.1,1.8,0.8C43.1,24.4,42.9,25.1,42.4,25.7z"/><path d="M54.5,33.2c-0.1-2-0.1-4,0-6c0-0.1,0-0.3,0-0.4h0v-2.4c0-1,0-2,0-3c0-2.8,0-5.6,0-8.4c0-2.5-1.6-3.4-2.9-3.8   c-3.4-0.8-6.9-1.7-10.3-2.6c-2.6-0.6-5.2-1.3-7.9-2c-0.9-0.2-1.9-0.2-2.9,0c-2.6,0.6-5.2,1.3-7.7,1.9c-3.4,0.9-7,1.7-10.4,2.6   c-1.9,0.5-2.9,1.8-2.9,3.8l0,2.8c0,5.8,0.1,11.8,0,17.7c-0.1,5.2,1.6,10,5,14.1c3.9,4.7,8.9,8.3,15.9,11.4c0.5,0.2,1,0.3,1.5,0.3   c0.6,0,1.2-0.1,1.7-0.3c5.9-2.5,10.6-5.7,14.4-9.7C52.5,44.7,54.7,39.2,54.5,33.2z M46.3,47.8c-3.9,4-8.5,6.9-13.6,9.1   c-0.4,0.2-1,0.2-1.3,0c-5.8-2.5-11-5.8-15-10.7c-3-3.7-4.6-7.8-4.5-12.6c0.1-6.8,0-13.7,0-20.5c0-0.9,0.2-1.3,1.1-1.5   c6.1-1.5,12.1-3,18.2-4.5c0.5-0.1,1.2-0.1,1.7,0c6.1,1.5,12.1,3,18.2,4.5c0.9,0.2,1.1,0.6,1.1,1.4c0,3.8,0,7.6,0,11.4c0,0,0,0,0,0   c0,2.9-0.1,5.9,0,8.8C52.4,39,50.2,43.7,46.3,47.8z"/></g><text x="0" y="79" fill="#000000" font-size="5px" font-weight="bold" font-family="'Helvetica Neue', Helvetica, Arial-Unicode, Arial, Sans-serif">Created by Arafat Uddin</text><text x="0" y="84" fill="#000000" font-size="5px" font-weight="bold" font-family="'Helvetica Neue', Helvetica, Arial-Unicode, Arial, Sans-serif">from the Noun Project</text></svg>